<?xml version="1.0" encoding="UTF-8"?>
<svg id="Layer_2" data-name="Layer 2" xmlns="http://www.w3.org/2000/svg" viewBox="0 0 202.2 278.29">
  <defs>
    <style>
      .cls-1 {
        fill: #4d3648;
      }

      .cls-1, .cls-2, .cls-3, .cls-4, .cls-5, .cls-6, .cls-7, .cls-8, .cls-9, .cls-10, .cls-11, .cls-12, .cls-13, .cls-14, .cls-15, .cls-16, .cls-17, .cls-18 {
        stroke-width: 0px;
      }

      .cls-2 {
        fill: #774657;
      }

      .cls-3 {
        fill: #534559;
      }

      .cls-4 {
        fill: #2e3347;
      }

      .cls-5 {
        fill: #171b2f;
      }

      .cls-6 {
        fill: #df696d;
      }

      .cls-7 {
        fill: #db5b64;
      }

      .cls-8 {
        fill: #e1d6d5;
      }

      .cls-9 {
        fill: #c8adb0;
      }

      .cls-10 {
        fill: #e0bbbc;
      }

      .cls-11 {
        fill: #d7c1c1;
      }

      .cls-12 {
        fill: #be9a9f;
      }

      .cls-13 {
        fill: #a24e61;
      }

      .cls-14 {
        fill: #b8394d;
      }

      .cls-15 {
        fill: #333049;
      }

      .cls-16 {
        fill: #8f6577;
      }

      .cls-17 {
        fill: #ba8990;
      }

      .cls-18 {
        fill: #745466;
      }
    </style>
  </defs>
  <g id="Layer_1-2" data-name="Layer 1">
    <g>
      <g>
        <rect class="cls-5" width="202.2" height="278.29"/>
        <path class="cls-5" d="m202.2,0v278.29H0V0h202.2Z"/>
      </g>
      <g>
        <path class="cls-7" d="m165.23,6.52c-.01.55-.06,2.05.27,2.31.4.31,2.46-1.27,7.61,5.84-1.88-1.79-3.78-3.56-5.57-5.44-21.78-.31-43.58.3-65.36.27-.72,0-1.45,0-2.17,0-8.75,0-62.12-.97-65.36-.27-.17.04-.38.68-.95.54,2.17-1.61,2.94.15,3.26-3.26,42.75-.12,85.52-.15,128.27,0Z"/>
        <path class="cls-15" d="m100.01,9.51c-1.93,2.23-4.1,4.23-6.25,6.25-.6.56-1.3,1.07-1.9,1.63-1.04-.36-.77,0-.82,0-17.41.45-34.89-.34-52.32,0l-20.79,21.06v201.11q10.4,10.4,20.79,20.79,26.16-.14,52.32-.27c.31.28.78.53,1.09.82,2.58,2.39,5.18,4.79,7.61,7.34-21.79-.03-43.57.02-65.36,0l-24.59-24.59V34.11c4.06-3.36,22.54-23.31,23.92-24.32.57.14.78-.51.95-.54,3.24-.7,56.61.27,65.36.27Z"/>
        <path class="cls-15" d="m173.12,14.68c6.49,6.2,12.49,12.99,19.02,19.16v209.8q-12.16,12.3-24.32,24.59c-21.88.02-43.75-.02-65.63,0-.02-.33.39-.43.54-.54l2.04.27c1.23-2.49,6.15-4.93,4.48-6.25.15-.12.71-1.14,1.77-1.63q26.43-.14,52.86-.27c1.11-.37,14.69-14.53,16.58-16.58.57-.62,3.68-3.25,3.8-3.67q-.14-100.49-.27-200.97-10.26-10.6-20.52-21.2c-2.51-.73-44.24.62-52.32,0-.04,0,.05-.59-.82,0-2.77-2.57-5.69-4.99-8.15-7.88,21.78.02,43.58-.58,65.36-.27,1.79,1.88,3.69,3.64,5.57,5.44Z"/>
        <path class="cls-14" d="m183.99,38.59c-.23,0-.9.56-.95.54-1.33-.38-16.46-17.74-19.7-19.43q9.51,9.78,19.02,19.57v198.12c-.29,1.37-.63,1.67-1.36,2.72-1.48,2.12-11.57,11.43-14.4,14.81-2.08,1.92-6.1,5.19-2.72,4.89q-26.43.14-52.86.27c-1.05.49-1.61,1.51-1.77,1.63-2.3,1.79-4.2,4.2-6.52,5.98-.15.12-.56.21-.54.54-.82,0-1.63,0-2.45,0-2.43-2.55-5.03-4.95-7.61-7.34-.49-1.41-.36-1.63,1.09-1.36,2.69,2.43,5.3,4.94,8.02,7.34,3.63-4.05,7.86-7.45,11.82-11.14.27,2.28,1.25,1.01,2.72,0q23.17.14,46.34.27,9.04-8.9,18.07-17.8V39.81l-17.8-18.07h-47.15s-.38-.15-1.09-.82l-2.99-3.53c8.08.62,49.8-.73,52.32,0q10.26,10.6,20.52,21.2Z"/>
        <path class="cls-14" d="m26.36,244.86c1.45,1.54,11.22,12.5,12.09,12.5.21,0,1.17-1.28,1.22-1.63h46.74c1.52,1.44,3.08,2.93,4.62,4.35q-26.16.14-52.32.27-10.4-10.4-20.79-20.79V39.13c.66-.16.95.36,1.22.27,1.36-.44,17.37-18.09,20.25-20.25q-9.65,10.06-19.3,20.11l-.27,192.41.27,7.07c.13.44,5.43,5.24,6.25,6.11Z"/>
        <path class="cls-14" d="m91.04,17.39c-1,1.14-3.27,2.43-3.26,3.8-.36.34-.75.48-.82.54h-47.15l-17.8,18.07v198.12c.1.38,4.4,5.02,5.16,5.84l-.82,1.09c-.83-.87-6.12-5.68-6.25-6.11l-.27-7.07.27-192.41q9.65-10.06,19.3-20.11c-2.88,2.16-18.88,19.81-20.25,20.25-.28.09-.56-.43-1.22-.27v-.68l20.79-21.06c17.42-.34,34.9.45,52.32,0Z"/>
        <path class="cls-13" d="m183.99,38.59q.14,100.49.27,200.97c-.12.42-3.24,3.05-3.8,3.67-.53.63-1.88.18-2.04.27-.58.34-7.8,8.42-9.24,9.78-.11.11-2.28,1.35-2.58,1.63,2.83-3.38,12.93-12.69,14.4-14.81.73-1.05,1.06-1.35,1.36-2.72V39.27q-9.51-9.78-19.02-19.57c3.25,1.69,18.37,19.05,19.7,19.43.05.02.72-.54.95-.54Z"/>
        <path class="cls-14" d="m180.45,243.23c-1.88,2.04-15.46,16.21-16.58,16.58-3.39.3.64-2.97,2.72-4.89.31-.28,2.47-1.53,2.58-1.63,1.44-1.36,8.66-9.44,9.24-9.78.16-.09,1.5.36,2.04-.27Z"/>
        <path class="cls-15" d="m102.73,267.69c2.32-1.77,4.22-4.19,6.52-5.98,1.67,1.32-3.25,3.77-4.48,6.25l-2.04-.27Z"/>
        <path class="cls-15" d="m115.77,255.73c.58-.4,1.02-1,1.63-1.36q22.08.14,44.16.27l17.26-16.99V40.36q-8.63-8.63-17.26-17.26-22.22.14-44.43.27c-.09-.09-.62-.41-1.9-1.63h47.15l17.8,18.07v198.39q-9.04,8.9-18.07,17.8-23.17-.14-46.34-.27Z"/>
        <g>
          <path class="cls-7" d="m36.96,6.52c-.32,3.42-1.09,1.65-3.26,3.26-1.37,1.01-19.85,20.96-23.92,24.32v209.53l24.59,24.59c21.79.02,43.57-.03,65.36,0,.82,0,1.63,0,2.45,0,21.88-.02,43.75.02,65.63,0q12.16-12.3,24.32-24.59V33.84c-6.53-6.17-12.53-12.96-19.02-19.16-5.15-7.11-7.21-5.53-7.61-5.84-.33-.26-.28-1.76-.27-2.31,9.77.03,19.6-.36,29.35.41v263.34q-93.28.2-186.57.41-.2-132.01-.41-264.02c9.78-.27,19.57-.11,29.35-.14Z"/>
          <g>
            <g>
              <path class="cls-15" d="m188.06,9.51c-7.24,7.31-11.83,8.99-3.4.54-2.87,1.34-5.82.83-8.83,1.22l6.93,6.66q3.87-4.21,7.75-8.42c.12.01,1.13-.79,1.9.14.05.58-.07,1.19,0,1.77-.9,1.06-8.15,7.71-8.15,8.29,0,.14,1.89,2.04,2.04,2.04.63,0,4.88-7.09,6.11-7.88.05,1.26-.02,2.54,0,3.8-5.07,4.77-6.05,4.85-2.31,7.88.46-.36-.33-4.53,2.31-5.71,0,3.8.11,7.62-.14,11.41q-10.67-10.8-21.33-21.61c.26-.94,15.43-.2,17.12-.14Z"/>
              <path class="cls-14" d="m190.51,9.51q-3.87,4.21-7.75,8.42l-6.93-6.66c3.01-.4,5.97.11,8.83-1.22-8.43,8.45-3.84,6.77,3.4-.54.89.03,1.46-.11,2.45,0Z"/>
              <path class="cls-14" d="m192.41,13.86c-1.24.79-5.49,7.88-6.11,7.88-.14,0-2.04-1.89-2.04-2.04,0-.58,7.25-7.23,8.15-8.29.1.78-.03,1.65,0,2.45Z"/>
              <path class="cls-14" d="m192.41,17.66c.01.72,0,1.45,0,2.17-2.64,1.17-1.85,5.35-2.31,5.71-3.74-3.03-2.76-3.11,2.31-7.88Z"/>
            </g>
            <g>
              <path class="cls-14" d="m16.31,21.47l-6.52-7.61c.02-.72-.06-1.46,0-2.17l8.15,8.02c.06.59-1.28,1.38-1.63,1.77Z"/>
              <path class="cls-1" d="m16.31,21.47c-.19.21-.36.35-.54.54-1.55,1.3-3.31-2.47-5.98-4.35.02-1.27-.04-2.54,0-3.8l6.52,7.61Z"/>
              <path class="cls-14" d="m15.76,22.01c-6.62,6.79-2.01,2.84-5.98-3.53,0-.27,0-.54,0-.82,2.67,1.88,4.43,5.65,5.98,4.35Z"/>
              <g>
                <path class="cls-15" d="m9.78,18.48c3.97,6.37-.65,10.32,5.98,3.53.18-.19.35-.33.54-.54.35-.38,1.69-1.17,1.63-1.77l-8.15-8.02c.06-.67-.04-1.37,0-2.04.22-.31,1.47-.05,1.9-.14,1.11.86,7.44,8.42,8.02,8.42.12,0,1.78-1.64,1.77-1.77-.07-.51-7.07-5.65-7.61-6.93,1.36-.08,17-.44,17.12.41q-10.53,10.8-21.06,21.61c-.21-4.25-.19-8.52-.14-12.77Z"/>
                <path class="cls-7" d="m13.86,9.24c.54,1.28,7.53,6.42,7.61,6.93.02.12-1.64,1.77-1.77,1.77-.58,0-6.91-7.56-8.02-8.42.83-.17,1.34-.22,2.17-.27Z"/>
                <path class="cls-14" d="m17.8,10.33c.87,0,3.09.8,3.26.82,5.78.45,7.6-1.76,1.36,3.8l-4.62-4.62Z"/>
              </g>
            </g>
            <g>
              <path class="cls-14" d="m9.78,266.6c-.1-.82.02-1.85,0-2.72l6.52-7.61c.3.33,1.66,1.72,1.63,2.04q-4.08,4.14-8.15,8.29Z"/>
              <path class="cls-14" d="m14.13,268.23c-.7-.02-1.47.09-2.17,0,.83-1.05,6.92-8.1,7.47-8.15.39-.04,1.81,1.38,1.77,1.77-.05.47-6.29,5.46-7.07,6.39Z"/>
              <path class="cls-1" d="m16.31,256.28l-6.52,7.61c-.05-1.99.02-3.99,0-5.98h.27c-.77,3.65,1.85.46,4.62-2.99.5.47,1.17.86,1.63,1.36Z"/>
              <g>
                <path class="cls-15" d="m14.13,268.23c.78-.93,7.02-5.91,7.07-6.39.04-.39-1.38-1.81-1.77-1.77-.55.06-6.64,7.11-7.47,8.15-.66-.09-1.37.06-2.04,0-.28-.2-.09-1.24-.14-1.63q4.08-4.14,8.15-8.29c.03-.32-1.33-1.71-1.63-2.04-.46-.5-1.14-.89-1.63-1.36-1.02-.97-1.93-1.94-2.85-2.99.27,5.13-1.52,4.8-1.77,5.98h-.27c-.03-3.8-.09-7.62.14-11.41q10.53,10.8,21.06,21.61c-5.6.15-11.25.27-16.85.14Z"/>
                <path class="cls-14" d="m22.42,263.07c4.05,2.97,4.82,5.11.54,2.72-7.4,4.29-5.94,1.71-.54-2.72Z"/>
              </g>
              <path class="cls-14" d="m14.68,254.92c-2.77,3.45-5.39,6.64-4.62,2.99.25-1.18,2.04-.85,1.77-5.98.92,1.05,1.83,2.02,2.85,2.99Z"/>
            </g>
            <g>
              <path class="cls-15" d="m192.41,258.18c-5.11-5.42.73-8.81-5.16-2.99-.53.52-.98.37-1.63,1.09-.28.3-1.39,1.46-1.36,1.77l8.15,8.29c-.06.43.16,1.7-.14,1.9-.67.05-1.38-.08-2.04,0q-3.87-4.08-7.75-8.15c-.61-.06-1.37,1.3-1.77,1.63-.48.4-.83.58-1.36,1.09-6.62,6.29-.95,2.06,2.99,4.89-3.49.45-7.11.46-10.6,0,6.23-7.19,13.95-13.74,20.25-20.93.68.09.41,10.29.41,11.41Z"/>
              <path class="cls-14" d="m192.41,263.89c-.02.79.1,1.67,0,2.45l-8.15-8.29c-.03-.3,1.08-1.46,1.36-1.77l6.79,7.61Z"/>
              <path class="cls-14" d="m190.24,268.23c-.7.08-1.47-.02-2.17,0l-7.34-6.52c.4-.33,1.15-1.69,1.77-1.63q3.87,4.08,7.75,8.15Z"/>
              <path class="cls-1" d="m188.06,268.23c-5.66.14-11.33-.1-16.99,0-.24-.57.65-.51.68-.54,3.49.46,7.11.45,10.6,0,.47-.06,1.94.16,2.17-.14l-5.16-4.76c.53-.5.88-.69,1.36-1.09l7.34,6.52Z"/>
              <path class="cls-1" d="m192.41,260.08c-.02,1.27.03,2.54,0,3.8l-6.79-7.61c.65-.72,1.1-.56,1.63-1.09l5.16,4.89Z"/>
              <path class="cls-14" d="m192.41,258.18c0,.63,0,1.27,0,1.9l-5.16-4.89c5.9-5.82.05-2.43,5.16,2.99Z"/>
              <path class="cls-14" d="m182.36,267.69c-3.94-2.83-9.61,1.4-2.99-4.89l5.16,4.76c-.23.3-1.7.08-2.17.14Z"/>
            </g>
          </g>
        </g>
        <path class="cls-15" d="m86.97,21.74c-.55.53-1.08,1.09-1.63,1.63q-22.49-.14-44.98-.27l-16.71,16.99v197.85q8.49,8.36,16.99,16.71,22.08-.14,44.16-.27c.5.48,1.13.88,1.63,1.36h-46.74c-.82-.28-11.14-10.49-12.5-11.96-.77-.83-5.07-5.46-5.16-5.84V39.81l17.8-18.07h47.15Z"/>
        <path class="cls-14" d="m39.68,255.73c-.05.35-1.02,1.63-1.22,1.63-.87,0-10.64-10.96-12.09-12.5l.82-1.09c1.36,1.47,11.68,11.68,12.5,11.96Z"/>
        <path class="cls-13" d="m85.34,23.37c-16.73,16.17-32.53,33.35-49.46,49.33-.04.36.87,1.22.95,1.22.49,0,8.01-8.68,5.3-4.76l.41.41c2.94.03,5.89-.04,8.83,0v138.87c-.41-.13-8.17.1-8.56.27-.48.21.99,2.36-1.49.27-.66-.56-3.19-3.26-4.62-4.62-.03-.03.62-.68-.14-.82-1.27-.23-1.91.64-.95,1.9.54.71,3.77,3.48,4.89,4.62,13.37,13.63,30.77,31.36,44.3,44.3q-22.08.14-44.16.27-8.49-8.36-16.99-16.71V40.09l16.71-16.99q22.49.14,44.98.27Z"/>
        <path class="cls-13" d="m117.4,254.37l48.92-48.78c-.7-2.83-1.7.24-5.71,3.13-.66-.76-1.29,0-1.36,0-.95.09-2.02-.02-2.99,0-1.77.03-3.53,0-5.3,0-.22,0-.11-.54-.14-.54V69.84c1.33-.02,7.59-.05,8.29-.27.19-.06.07-.99.54-1.09.46-.09,7.34,8.23,6.66,4.21-17.03-15.77-32.51-33.22-49.19-49.33q22.22-.14,44.43-.27,8.63,8.63,17.26,17.26v197.3l-17.26,16.99q-22.08-.14-44.16-.27Z"/>
        <path class="cls-2" d="m36.69,204.37l-1.09,1.09c-.96-1.26-.32-2.13.95-1.9.76.14.11.79.14.82Z"/>
        <g>
          <path class="cls-8" d="m55.98,69.57v139.14c-1.45,0-2.9,0-4.35,0-.07-.12.06-.17-.27-.27V69.57c.09,0,.18,0,.27,0,1.45.02,2.9,0,4.35,0Z"/>
          <path class="cls-8" d="m150.83,69.84v138.33c-.27,0,.58.53-5.16.54q.14-69.57.27-139.14c1.61,0,3.35.3,4.89.27Z"/>
          <path class="cls-11" d="m57.89,69.57v138.87c-.1,0-.28.27-1.9.27V69.57c.63,0,1.27,0,1.9,0Z"/>
          <path class="cls-8" d="m63.87,69.57v139.14c-1.96-.05-4.06-.27-5.98-.27V69.57c1.99,0,3.99.04,5.98,0Z"/>
          <path class="cls-8" d="m144.58,69.57q-.14,69.44-.27,138.87c-1.89.02-3.85-.04-5.71,0q-.14-69.44-.27-138.87c2.08.06,4.17,0,6.25,0Z"/>
          <path class="cls-11" d="m138.33,69.57q.14,69.44.27,138.87c-.56.01-1.11-.02-1.63,0V69.57c.45.01.91-.01,1.36,0Z"/>
          <path class="cls-11" d="m145.94,69.57q-.14,69.57-.27,139.14c-1.1,0-1.26-.27-1.36-.27q.14-69.44.27-138.87c.45,0,.91,0,1.36,0Z"/>
          <path class="cls-11" d="m65.22,69.57v138.87c-.44-.01-.6.29-1.36.27V69.57c.45,0,.91.01,1.36,0Z"/>
          <g>
            <path class="cls-14" d="m102.18,9.51c2.46,2.89,5.38,5.31,8.15,7.88.03.03.24.52.27.54l-.82,1.63c-2.9-2.68-5.88-5.24-8.56-8.15-2.17,1.85-4.28,3.79-6.39,5.71l-1.09-1.36c2.15-2.02,4.32-4.02,6.25-6.25.72,0,1.45,0,2.17,0Z"/>
            <path class="cls-7" d="m94.85,17.12c-17.6,16.02-33.77,33.56-50.82,50.14.24.31,6.84.13,7.88.14.33,1.52,1.04.82-.27,2.17-.09,0-.18,0-.27,0-2.94-.04-5.89.03-8.83,0l-.41-.41c2.71-3.93-4.81,4.75-5.3,4.76-.08,0-.99-.87-.95-1.22,16.94-15.97,32.73-33.16,49.46-49.33.56-.54,1.08-1.11,1.63-1.63.07-.06.46-.2.82-.54,1.34-1.28,2.72-2.54,4.08-3.8.6-.56,1.31-1.07,1.9-1.63l1.09,1.36Z"/>
            <path class="cls-2" d="m91.86,17.39c-1.36,1.27-2.74,2.52-4.08,3.8-.01-1.37,2.26-2.66,3.26-3.8.04,0-.22-.36.82,0Z"/>
            <path class="cls-2" d="m111.15,17.39l2.99,3.53c-1.12-1.06-2.43-1.97-3.53-2.99-.03-.03-.24-.52-.27-.54.87-.59.77,0,.82,0Z"/>
            <path class="cls-7" d="m114.14,20.93c.71.67,1.04.77,1.09.82,1.28,1.22,1.81,1.54,1.9,1.63,16.68,16.11,32.16,33.55,49.19,49.33.68,4.02-6.2-4.31-6.66-4.21-.47.1-.35,1.03-.54,1.09-.7.22-6.96.25-8.29.27-1.54.02-3.28-.28-4.89-.27l.14-.54c4.07-.29,5.01,1.13,5.03-1.63.94-.01,6.85.14,7.07-.14-16.19-15.84-31.72-32.33-48.37-47.7l.82-1.63c1.11,1.02,2.42,1.93,3.53,2.99Z"/>
            <path class="cls-6" d="m151.1,67.4c-.02,2.76-.95,1.34-5.03,1.63l-.14.54c-.45,0-.91,0-1.36,0-2.08,0-4.17.06-6.25,0-.45-.01-.91.01-1.36,0-2.14-.07-4.11.18-6.25-.27q-14.88-13.59-29.76-27.18-14.61,13.59-29.22,27.18c-2.24.42-4.29.21-6.52.27-.45.01-.91,0-1.36,0-1.99.04-3.99,0-5.98,0-.63,0-1.27,0-1.9,0-1.45,0-2.9.02-4.35,0,1.31-1.36.6-.65.27-2.17,3.03.03,16.54.28,18.07-.27q15.49-14.13,30.98-28.26l30.98,28.26c1.3.54,16.26.3,19.16.27Z"/>
            <g>
              <path class="cls-15" d="m109.79,19.57c16.65,15.37,32.19,31.86,48.37,47.7-.21.28-6.12.13-7.07.14-2.9.03-17.86.26-19.16-.27l-30.98-28.26q-15.49,14.13-30.98,28.26c-1.53.55-15.05.3-18.07.27-1.04,0-7.64.18-7.88-.14,17.05-16.58,33.22-34.12,50.82-50.14,2.11-1.92,4.21-3.86,6.39-5.71,2.68,2.91,5.66,5.48,8.56,8.15Z"/>
              <g>
                <path class="cls-7" d="m148.66,60.6c-3.32.45-6.72.26-10.06.27.21-1.46-.53-1.01-.54-1.09-.1-.59.42-.64.54-1.09,7.79.72-.56-1.11-3.53-.82-1.46-.59-1.55-1.03-1.63-1.09-1.19-.92-17.56-18.4-20.93-21.74-3.79-3.77-7.48-7.66-11.55-11.14-.92,0-11.36,11.5-12.91,13.04-6.75,6.75-13.72,13.28-20.11,20.38-.45.19-.9.39-1.36.54l-3.53.27c-.52,1.17,2.06.83,4.62,1.09-.03,0-.15.47-.41.54-.81.24-3.24-.39-2.85.82-1.82.02-9.97.45-10.73.27-.2-.05-.14-.36-.14-.54,15.52-15.94,31.21-31.8,47.7-46.74,16.24,15.24,32.01,30.94,47.42,47.02Z"/>
                <path class="cls-13" d="m138.6,60.88c3.34,0,6.73.18,10.06-.27,1.41,1.47,3.11,2.69,4.35,4.35-2.85.92-2.37-.12-2.72-.82-.11-.21.17-.91-.14-1.09-.7-.41-14.03.31-16.17,0h-3.8c-.69-.64-1.46-1.25-2.17-1.9,3.51-.5,7.07-.26,10.6-.27Z"/>
                <path class="cls-13" d="m64.41,60.6c2.88-.02,6.15-.35,8.97.27.25.05.55-.03.82,0-1.03.92-1.93,2.04-2.99,2.99.62-1.63-1.41-1.04-2.45-1.09-5.46-.26-10.98.2-16.44,0-.87.6-.12,1.04-.14,1.09-.58,1.57-.41,1.94-2.99.82,1.29-1.63,2.91-2.88,4.35-4.35,0,.18-.07.5.14.54.77.18,8.92-.26,10.73-.27Z"/>
                <path class="cls-18" d="m68.49,64.14c-.03.82-.02,1.24.82,1.63-.05.03-.41.7-.68.82-5.56-.79-11.29.13-16.85-.27-4.46-.32-3.87,0-2.58-1.63,2.58,1.12,2.41.75,2.99-.82q8.15.14,16.31.27Z"/>
                <path class="cls-18" d="m150.29,64.14c.35.69-.13,1.74,2.72.82.1.13,1.54.91.41,1.36-.89.35-17.2.18-19.16,0-.05-.72.07-1.46,0-2.17h16.03Z"/>
                <path class="cls-7" d="m138.06,59.79c.01.07.76-.37.54,1.09-3.53,0-7.09-.23-10.6.27-1.46-1.34-2.89-2.74-4.35-4.08,1.29.84,1.2-1.45,2.31-1.36.26.02,3.93,2.21,4.62,2.45,2.18.73,5.2,1.64,7.47,1.63Z"/>
                <path class="cls-18" d="m133.98,63.05c-.02.44.22.58.27,1.09.07.71-.05,1.46,0,2.17-.56-.05-.62.36-.95.27-1.69-1.37-2.88-3.3-3.13-3.53h3.8Z"/>
                <path class="cls-18" d="m71.2,63.87c-.68.61-1.08,1.39-1.9,1.9-.84-.39-.85-.81-.82-1.63,0-.17.43-.47.27-1.36,1.04.05,3.06-.54,2.45,1.09Z"/>
                <path class="cls-7" d="m112.51,35.06c-.5.01,1.07,1.77,1.9,2.72-.43,2.11-1.69-.03-4.35-2.45-3.06-2.78-5.88-5.8-8.83-8.7-.72-.07-8.16,7.58-9.38,8.7-2.15,1.96-3.77,4-3.8,2.45.05-.09-.03-.5,0-.82,1.55-1.55,11.99-13.04,12.91-13.04,4.07,3.48,7.76,7.37,11.55,11.14Z"/>
                <path class="cls-4" d="m88.05,37.78c-.57.99-13.74,14.08-15.63,16.58-1.58.78-2.86,2.31-4.48,2.99,6.39-7.1,13.36-13.63,20.11-20.38-.03.31.05.73,0,.82Z"/>
                <path class="cls-7" d="m73.38,60.88c-2.82-.62-6.09-.3-8.97-.27-.38-1.21,2.04-.57,2.85-.82.26-.08.38-.53.41-.54,4.76-1.46,11.28-4.55,8.83-2.72-2.8,2.1-5.82.09-3.13,4.35Z"/>
                <path class="cls-13" d="m138.6,58.7c-1.12-.1-2.41-.62-3.53-.82,2.97-.3,11.32,1.53,3.53.82Z"/>
                <path class="cls-14" d="m66.58,57.89c-1.07.37-2.41.25-3.53.27l3.53-.27Z"/>
                <g>
                  <path class="cls-7" d="m110.07,35.33c2.66,2.42,3.92,4.55,4.35,2.45,5.15,5.83,13.25,15.63,19.02,19.02.08.06.17.5,1.63,1.09,1.12.2,2.42.71,3.53.82-.12.44-.65.5-.54,1.09-2.27.01-5.3-.9-7.47-1.63-.69-.23-4.36-2.42-4.62-2.45-1.11-.09-1.02,2.2-2.31,1.36-7.39-6.78-14.93-13.41-22.15-20.38h-.82c-8.74,8.17-17.59,16.2-26.5,24.19-.26-.03-.57.05-.82,0-2.7-4.26.32-2.24,3.13-4.35,2.44-1.83-4.07,1.26-8.83,2.72-2.56-.26-5.14.08-4.62-1.09,1.12-.02,2.46.1,3.53-.27.46-.16.91-.36,1.36-.54,1.62-.68,2.91-2.21,4.48-2.99,1.89-2.5,15.06-15.59,15.63-16.58.04,1.56,1.66-.49,3.8-2.45-1.05,2.51-5.29,4.32-5.57,6.52q7.34-6.66,14.68-13.32,7.34,6.66,14.68,13.32l.41-.14c.15-.41-5.31-4.63-5.98-6.39Z"/>
                  <g>
                    <path class="cls-15" d="m133.44,56.8c-5.78-3.39-13.88-13.19-19.02-19.02-.84-.95-2.41-2.7-1.9-2.72,3.36,3.34,19.73,20.82,20.93,21.74Z"/>
                    <path class="cls-15" d="m110.07,35.33c.67,1.76,6.12,5.97,5.98,6.39l-.41.14q-7.34-6.66-14.68-13.32-7.34,6.66-14.68,13.32c.28-2.2,4.52-4.01,5.57-6.52,1.22-1.11,8.66-8.77,9.38-8.7,2.95,2.89,5.77,5.91,8.83,8.7Z"/>
                    <path class="cls-14" d="m93.62,38.86l-10.87,11.41c3.1-4.23,7.03-7.87,10.87-11.41Z"/>
                    <path class="cls-14" d="m112.78,43.48c-3.54-3.18-4.53-4.88-2.45-3.4.95.68,2.31,3.24,2.45,3.4Z"/>
                    <path class="cls-14" d="m112.78,43.48c.13.11,2.58,1.36,2.31,2.45-.98-.64-1.58-1.56-2.31-2.45Z"/>
                  </g>
                </g>
                <path class="cls-3" d="m150.29,64.14h-16.03c-.05-.51-.3-.65-.27-1.09,2.14.31,15.47-.41,16.17,0,.31.18.03.87.14,1.09Z"/>
                <path class="cls-3" d="m68.76,62.78c.15.88-.27,1.19-.27,1.36q-8.15-.14-16.31-.27c.02-.05-.74-.49.14-1.09,5.46.2,10.99-.26,16.44,0Z"/>
              </g>
            </g>
          </g>
          <g>
            <path class="cls-7" d="m51.64,208.72c.12.21-.19,1.13.14,1.36.72.51,15.44-.39,17.66,0,.85.64.63,1.05.68,1.09h-.27c.02-.3-.88-.8-.95-.82-1.09-.18-19.36.17-22.15.27-1.74.06-3.17-.26-2.99.41,16.82,15.83,32.33,33.01,49.46,48.51-1.45-.27-1.57-.05-1.09,1.36-.31-.28-.78-.53-1.09-.82-1.54-1.41-3.1-2.91-4.62-4.35-.5-.48-1.13-.88-1.63-1.36-13.53-12.94-30.93-30.67-44.3-44.3l.82-1.09c2.48,2.09,1.02-.06,1.49-.27.39-.17,8.15-.4,8.56-.27.33.1.2.15.27.27Z"/>
            <path class="cls-15" d="m46.74,210.62c.19,1.05,1.72,1.99,2.45,2.72.27.27.54.54.82.82.99.99,2.02,1.99,2.99,2.99,10.83,11.17,21.3,22.73,32.88,33.16,1.67,1.69,14.32,14.24,15.35,14.13,7.66-6.6,14.66-13.87,21.88-20.93,8.79-8.59,17.53-17.26,26.09-26.09,1.32-1.37,2.78-2.7,4.08-4.08.74-.79,1.86-1.42,1.63-2.72h3.26c-15.01,15.05-29.55,30.62-45.11,45.11-3.96,3.69-8.19,7.09-11.82,11.14-2.72-2.4-5.33-4.91-8.02-7.34-17.13-15.5-32.64-32.68-49.46-48.51-.18-.67,1.25-.35,2.99-.41Z"/>
            <path class="cls-7" d="m117.4,254.37c-.61.36-1.05.96-1.63,1.36-1.46,1.01-2.45,2.28-2.72,0,15.56-14.49,30.1-30.07,45.11-45.11.72-1.37-2.46.65-1.9-1.9.97-.02,2.04.09,2.99,0-.13,2.07.68.49,1.36,0,4-2.89,5-5.96,5.71-3.13l-48.92,48.78Z"/>
            <path class="cls-6" d="m156.27,208.72c-.56,2.55,2.62.53,1.9,1.9h-25.68c-.27.12-.63.79-.68.82-2.72,1.69-25.14,23.64-30.85,27.99-7.73-6.37-24.75-23.54-30.85-28.26-.05-.04.17-.45-.68-1.09-2.23-.39-16.94.51-17.66,0-.33-.23-.01-1.15-.14-1.36,1.45,0,2.9,0,4.35,0,1.63,0,1.81-.27,1.9-.27,1.92,0,4.02.22,5.98.27.76.02.92-.29,1.36-.27,1.97.06,3.98.51,5.98.27,10.01,9.14,19.68,18.78,30.3,27.18q14.61-13.59,29.22-27.18c2.09.24,4.19-.21,6.25-.27.52-.02,1.07.01,1.63,0,1.86-.04,3.82.02,5.71,0,.1,0,.26.27,1.36.27,5.74-.01,4.89-.54,5.16-.54.03,0-.08.54.14.54,1.77,0,3.53.03,5.3,0Z"/>
            <path class="cls-15" d="m131.81,211.44c.26.3.69.55,1.09.54,0,.51-.5,1.03-.82,1.36-.33.36-.74.73-1.09,1.09-.7.71-1.46,1.5-2.17,2.17-8.97,8.46-18.51,16.35-27.31,25-.77.18-1.59-.67-2.17-1.09-1.42-1.01-22.69-20.75-25.68-23.64-.81-.79-1.64-1.64-2.45-2.45-.05-.05-.12-.38-.82-1.09-.2-.2-.38-.95-.54-1.09v-1.09h.27c6.09,4.72,23.11,21.89,30.85,28.26,5.7-4.35,28.13-26.3,30.85-27.99Z"/>
            <path class="cls-3" d="m69.84,211.16v1.09c-.32-.26-.7-.46-.95-.82-3.39.79-18.33-.15-19.3.27-.61.27-.37,1.16-.41,1.63-.73-.73-2.25-1.67-2.45-2.72,2.79-.1,21.06-.45,22.15-.27.07.01.97.52.95.82Z"/>
            <path class="cls-7" d="m36.69,204.37c1.43,1.36,3.96,4.06,4.62,4.62l-.82,1.09c-1.12-1.14-4.35-3.91-4.89-4.62l1.09-1.09Z"/>
            <path class="cls-7" d="m68.76,222.03c1.37.93,19.72,19.9,23.37,23.37,1.2,1.27,2.29,2.54,3.53,3.8.84.85,4.95,5.29,5.84,5.16,3.39-3.43,9.05-9.11,11.82-12.77l.41.27c6.53-6.82,13.32-13.41,19.97-20.11.89.63.51,5.45.27,6.11-.8,2.25-11.59,9.43-10.87,15.63-7.22,7.06-14.22,14.33-21.88,20.93-1.04.11-13.69-12.44-15.35-14.13-2.99-3.03-5.9-6.15-8.97-9.1.84-2.2-.61-3.09-1.09-4.08-.14-.29.29-.52.27-.54-.52-.92-9.55-9.94-9.78-11.14-.04-.22.41-3.81.54-4.48.68.33,1.27.66,1.9,1.09Z"/>
            <path class="cls-7" d="m149.2,217.41c-8.56,8.83-17.29,17.49-26.09,26.09-.71-6.2,10.07-13.38,10.87-15.63.24-.67.62-5.48-.27-6.11.02-.02.23-.4.27-.54.67-.42,2.39-1.1,2.45-1.22.14-.32-.57-2.27-.95-2.31-.44-.05-4.97,2.86-5.44,2.72-.16-.05-.27-2.82-.41-3.26,4.68.52,16.95-.86,19.43-.27.2.05.14.36.14.54Z"/>
            <path class="cls-7" d="m60.88,217.14c-1.02,2.31.76,1.91,2.72,2.72,1.03.43,2.3.61,3.26,1.09-.14.67-.59,4.26-.54,4.48.24,1.2,9.27,10.22,9.78,11.14.01.03-.41.26-.27.54.48.99,1.92,1.88,1.09,4.08,3.07,2.96,5.98,6.07,8.97,9.1-11.58-10.43-22.06-21.98-32.88-33.16h7.88Z"/>
            <path class="cls-16" d="m153.01,212.79c.06.27.27.31.27.54-1.3,1.38-2.75,2.71-4.08,4.08,0-.18.07-.5-.14-.54-2.48-.59-14.75.79-19.43.27-.42-.05-.7-.05-.82-.54.72-.68,1.48-1.47,2.17-2.17,2.42.16,18.03.67,18.89.27.52-.24.42-.89.41-1.36.15-.01-.52-.39,2.72-.54Z"/>
            <path class="cls-16" d="m52.18,213.34c-.32.41-.45,1.13.14,1.36.88.35,16.4-.07,18.89-.27.8.81,1.63,1.66,2.45,2.45-.91.26-1.36-.02-1.63,0-3.73.34-7.4.31-11.14.27h-7.88c-.97-1-2-2-2.99-2.99.29-.75,1.5-.77,2.17-.82Z"/>
            <path class="cls-18" d="m69.84,212.25c.16.13.34.89.54,1.09-6.03.32-12.19-.41-18.21,0-.68.05-1.88.06-2.17.82-.27-.27-.54-.54-.82-.82.03-.47-.2-1.36.41-1.63.96-.42,15.9.52,19.3-.27.25.35.63.55.95.82Z"/>
            <path class="cls-3" d="m154.91,210.62c.23,1.3-.89,1.93-1.63,2.72,0-.23-.21-.28-.27-.54-.08-.36.11-.88-.41-1.09-1.37-.53-16.86.23-19.7.27-.4,0-.83-.24-1.09-.54.05-.03.41-.7.68-.82h22.42Z"/>
            <path class="cls-2" d="m160.61,208.72c-.68.49-1.48,2.07-1.36,0,.07,0,.69-.76,1.36,0Z"/>
            <path class="cls-18" d="m153.01,212.79c-3.23.15-2.57.53-2.72.54-5.29.42-12.61-.31-18.21,0,.31-.33.81-.85.82-1.36,2.84-.04,18.33-.8,19.7-.27.52.2.33.73.41,1.09Z"/>
            <path class="cls-1" d="m70.39,213.34c.7.71.77,1.04.82,1.09-2.49.2-18.01.62-18.89.27-.59-.23-.46-.95-.14-1.36,6.02-.41,12.18.32,18.21,0Z"/>
            <path class="cls-1" d="m150.29,213.34c.01.47.11,1.12-.41,1.36-.86.4-16.47-.11-18.89-.27.35-.36.75-.73,1.09-1.09,5.59-.31,12.91.42,18.21,0Z"/>
            <path class="cls-7" d="m114.69,239.97c-.48,1.1-1.29,1.55-1.36,1.63-2.77,3.66-8.43,9.34-11.82,12.77-.9.12-5-4.31-5.84-5.16-.56-1.39-2.42-2.75-3.53-3.8-1.23-1.31-2.28-3.03-3.53-4.35,1.37-.81-.64-1.22,0-1.63,1.38,1.48,11.77,12.36,12.64,12.23q6.73-6.79,13.45-13.59c.21.69.29,1.23,0,1.9Z"/>
            <path class="cls-15" d="m133.98,221.22c-.04.14-.25.52-.27.54-6.66,6.7-13.44,13.29-19.97,20.11l-.41-.27c.06-.08.88-.53,1.36-1.63,6.89-6.73,11.04-13.5,19.3-18.75Z"/>
            <path class="cls-15" d="m95.66,249.21c-1.25-1.26-2.33-2.53-3.53-3.8,1.11,1.06,2.97,2.42,3.53,3.8Z"/>
            <path class="cls-7" d="m72.02,216.87c.15,4.3,1.08,2.78,3.67,4.35,5.3,3.2-4.14-.27-8.15-3.53-1,.66-2.69,1.26-2.31,2.45-.26-.07-.59-.42-1.63-.27-1.95-.81-3.74-.41-2.72-2.72,3.74.04,7.41.07,11.14-.27Z"/>
            <g>
              <path class="cls-7" d="m129.63,217.14c.13.44.25,3.21.41,3.26.47.14,4.99-2.77,5.44-2.72.38.04,1.09,1.99.95,2.31-.06.12-1.78.8-2.45,1.22-8.26,5.26-12.41,12.02-19.3,18.75.29-.67.21-1.21,0-1.9-.08-.25.88-1.37-1.77.82-3.97,3.28-7.65,7.08-11.41,10.6-.77.18-1.59-.67-2.17-1.09-1.43-1.02-9.73-9.28-12.5-11.69l-.41.41c.8.7,1.45,1.54,2.17,2.31-.64.41,1.37.82,0,1.63-7.08-5.8-11.78-14.73-19.84-19.3-1.52-.86-1.64-1.1-3.53-1.63-.38-1.18,1.31-1.78,2.31-2.45,4.01,3.26,13.45,6.74,8.15,3.53-2.59-1.57-3.52-.05-3.67-4.35.27-.02.72.26,1.63,0,2.99,2.89,24.26,22.63,25.68,23.64.58.42,1.4,1.26,2.17,1.09,8.8-8.65,18.35-16.54,27.31-25,.11.49.4.5.82.54Z"/>
              <g>
                <path class="cls-15" d="m88.6,241.06c1.25,1.32,2.3,3.04,3.53,4.35-3.65-3.47-22-22.45-23.37-23.37v-.27c8.06,4.57,12.75,13.49,19.84,19.3Z"/>
                <path class="cls-14" d="m65.22,220.13c1.89.53,2.01.77,3.53,1.63v.27c-.63-.43-1.22-.75-1.9-1.09-.96-.47-2.23-.66-3.26-1.09,1.04-.15,1.37.2,1.63.27Z"/>
                <path class="cls-15" d="m114.69,238.07q-6.73,6.79-13.45,13.59c-.87.13-11.26-10.75-12.64-12.23-.72-.77-1.37-1.61-2.17-2.31l.41-.41c2.77,2.41,11.07,10.67,12.5,11.69.58.42,1.4,1.26,2.17,1.09,3.77-3.52,7.44-7.32,11.41-10.6,2.65-2.18,1.69-1.06,1.77-.82Z"/>
                <path class="cls-7" d="m126.78,221.22c1.17.13-1.69,1.38-1.77,1.22-.3-.66,1.62-.81,1.77-1.22Z"/>
                <path class="cls-14" d="m129.23,220.13c1.48.02-1.35,1.43-1.49.95-.07-.24,1.41-.95,1.49-.95Z"/>
              </g>
            </g>
          </g>
          <g>
            <path class="cls-8" d="m130.72,69.3c2.14.45,4.11.2,6.25.27v138.87c-2.06.06-4.17.52-6.25.27h-.95c-9.65,8.72-19.2,17.57-28.54,26.63-5.99-4.82-23.22-22.22-27.18-25-.89-.63-1.73-1.43-2.85-1.63-2,.24-4.01-.21-5.98-.27V69.57c2.23-.06,4.29.15,6.52-.27.24-.05.35.4.68.27,9.8-8.57,18.82-18,28.81-26.36,4.81,4.3,24.38,23.31,26.9,25,1.3.87,1.12.78,2.58,1.09Z"/>
            <g>
              <path class="cls-13" d="m130.72,69.3c-1.46-.31-1.28-.22-2.58-1.09-2.53-1.69-22.09-20.7-26.9-25-9.99,8.36-19.01,17.79-28.81,26.36-.33.13-.44-.32-.68-.27q14.61-13.59,29.22-27.18,14.88,13.59,29.76,27.18Z"/>
              <path class="cls-13" d="m130.72,208.72q-14.61,13.59-29.22,27.18c-10.62-8.39-20.29-18.04-30.3-27.18,1.13.2,1.96,1.01,2.85,1.63,3.95,2.78,21.19,20.18,27.18,25,9.33-9.07,18.89-17.91,28.54-26.63h.95Z"/>
              <path class="cls-10" d="m87.78,169.04c1.9,1.81,3.81,3.62,5.71,5.44,1.09,1.03,7.07,7.78,8.02,7.61,2.84-2.82,5.46-5.86,8.29-8.7,1.8-1.81,3.83-3.43,5.44-5.44h.27c-.35,1.31.04,2.89,1.63,2.99-2.29,2.42-2.31,3.11-2.45,3.26-4.36,4.62-9.24,8.81-13.45,13.59-4.18-4.05-8.68-7.97-12.64-12.23-1.36-1.46-2.41-3.39-3.8-4.89.84-1.12,1.97-1.03,1.63-2.72.39.38.96.71,1.36,1.09Z"/>
              <path class="cls-10" d="m114.41,103.54c.15.15-.94-.03,2.17,3.26-2.08.8-1.65.67-1.63,2.99-.46-.33-.95-.71-1.36-1.09-4.29-3.94-8.04-8.58-12.37-12.5-.85-.13-10.78,10.47-12.37,11.96-.98.92-2.02,1.8-2.99,2.72l-.82-3.53c.32-.33.82-1.32,1.63-2.17,1.7-1.78,13.01-14.19,14-14.4.24-.05.56.04.82,0,3.74,4.63,9.07,8.71,12.91,12.77Z"/>
              <path class="cls-17" d="m118.76,175.56c.46.47.9.9,1.36,1.36,1.03,1.03,2.22,1.97,3.26,2.99.45.44.9.91,1.36,1.36,1.08,1.05,7.15,6.68,7.34,7.34-.24.04-1.3.5-1.36.54-.46-.81-1.24-1.3-1.9-1.9-1.05-.96-1.04-.77-1.09-.82-1.39-1.29-2.66-2.79-4.08-4.08-.43-.39-.94-.71-1.36-1.09-.44-.39-2.89-3.26-3.13-3.26-2.1,2.18-16.43,17.67-17.66,17.94-.24.05-.56-.04-.82,0-6.39-5.48-12.06-11.69-17.66-17.94-.25,0-2.95,2.88-3.4,3.26-.34.3-.58.61-.82.82-2.5,2.21-4.86,4.6-7.34,6.79-.23.2-.8.21-.82.54-.13-.24-.58-.7-.82-.95,2.61-2.41,5.06-5,7.61-7.47.4-.39.95-.69,1.36-1.09,1.11-1.07,2.17-2.18,3.26-3.26.06-.06.38-.07,1.36-1.09.31-.32,2.15-1.8,2.17-2.04-1.98-2.32-3.96-4.65-5.98-6.93-.09-.81.01-.9.82-.82,1.5,1.59,2.86,3.29,4.35,4.89,1.39,1.5,2.45,3.43,3.8,4.89-.39.89-.47.33-1.09,0-1.41-1.29-1.01-.54-3.53,1.77,2.46,2.32,15.39,17.5,17.53,17.26,6.1-5.14,10.99-11.48,16.44-17.26.05-.47-1.98-2.26-2.45-2.58-.15-.1-.54-.02-.82-.54.14-.15.16-.84,2.45-3.26,4.48-4.73,8.61-9.78,13.72-13.86l.41.41q-7.34,7.88-14.68,15.76c-.13.82,1.37,1.49,2.17,2.31Z"/>
              <path class="cls-17" d="m122.3,96.48c.34-.29.57-.6.82-.82,1.45-1.27,2.91-2.52,4.35-3.8.39-.35.73-.77,1.09-1.09.62-.55,1.27-1.09,1.9-1.63.28-.24.67-.59,1.09-.54.19.35.61.63.54.95-4.07,3.85-8.22,7.63-12.23,11.55-.38.37-.72.71-1.09,1.09-.58.59-2.64,1.53-2.45,2.58,1.84,1.75,3.46,3.7,5.16,5.57l-.82.54c-1.29-1.39-2.85-2.61-4.08-4.08-3.11-3.3-2.03-3.11-2.17-3.26.42-.05.51-.52.54-.54,1.03-.74,2.07-1.42,2.99-2.31q-8.49-8.76-16.99-17.53c-1.84,2.14-16.59,16.32-16.71,17.53-.05.48,1.94,2.21,2.45,2.58-.16.28-.56,1.76,0,1.9-.81.85-1.31,1.84-1.63,2.17-1.62,1.7-12.49,13.96-13.45,13.86-.07,0-.24-.28-.41-.41q7.34-8.02,14.68-16.03c-.62-1.44-2.57-2.44-2.72-2.58-.27-.27-.54-.54-.82-.82-4.06-3.95-8.25-7.78-12.23-11.82-.12-.42.14-.62.27-.95.44-.05.77.31,1.09.54.76.57,1.47,1.26,2.17,1.9.27.24.53.55.82.82,1.37,1.26,2.68,2.57,4.08,3.8.43.39.92.71,1.36,1.09.66.57,2.47,3.13,3.4,2.99l17.39-17.66c1.52-.28,15.87,15.75,18.21,17.66.45,0,2.88-2.81,3.4-3.26Z"/>
              <path class="cls-11" d="m131.67,195.67c.85.18-.11,1.34-.41,1.77-1.74,2.46-25.3,24.87-30.03,29.76-10.97-9.32-20.72-20.07-30.85-30.3l.95-.95,29.89,29.62,30.44-29.89Z"/>
              <path class="cls-11" d="m100.96,50.82q15.42,15.15,30.85,30.3l-.68,1.22q-14.95-14.81-29.89-29.62c-4.47,2.93-27.67,28.62-29.62,29.35-.88.33-1.2-.1-.95-.95.6-2.06,27.2-26.07,30.3-30.3Z"/>
              <path class="cls-11" d="m132.08,188.61c-9.39,11.67-20.78,21.55-30.85,32.61-5.18-5.38-28.58-28.14-30.57-31.8.02-.34.59-.34.82-.54l29.49,30.44c6.25-5.14,26.27-27.42,29.76-30.17.06-.05,1.12-.5,1.36-.54Z"/>
              <path class="cls-11" d="m131.54,88.6c-.41-.05-.81.3-1.09.54q-14.61-14.95-29.22-29.89l-29.76,29.89c-.32-.24-.64-.59-1.09-.54.8-2.03,27.06-27.26,30.85-30.98,4.57,4.89,28.8,28.2,30.3,30.98Z"/>
              <path class="cls-17" d="m101.1,112.78c-1.73,2.18-.31,2.64,1.36,1.36,3,2.82,6.01,5.71,8.7,8.83.63.73,4.81,5.48,4.21,5.84q-7.07-6.79-14.13-13.59c-18.37,17.95-19.52,17.31-1.49-1.22.06-.56-1.04-1.15-1.09-1.22-.32-.49-.72-.9-1.09-1.36-.6-.75-1.26-1.46-1.9-2.17-.36-.4-.75-.72-1.09-1.09-.56-.6-1.12-1.26-1.63-1.9.27-.27.54-.54.82-.82l7.34,7.34Z"/>
              <path class="cls-14" d="m113.6,108.71l-.54,1.36c-1.31-1.27-2.71-2.46-3.94-3.8-1.58,1.32-1.41,1.81-1.49,1.9-.99,1.06-.77,1.04-.82,1.09-.68.74-1.47,1.42-2.17,2.17-.39.41-.7.97-1.09,1.36-1.38,1.37-1.02,1.31-1.09,1.36-1.67,1.28-3.08.82-1.36-1.36.8-1.01,7-6.6,7.07-7.2l-6.93-7.47c-.59-.06-6.56,6.42-7.47,7.34-.27.27-.54.54-.82.82-.99,1-2,1.99-2.99,2.99-.71-.08-1.28-.29-1.09-1.09,1.59-1.49,11.52-12.09,12.37-11.96,4.33,3.92,8.08,8.56,12.37,12.5Z"/>
              <path class="cls-14" d="m102.46,164.42c.42.36.96.71,1.36,1.09.05.05.14.38.82,1.09.71.74,1.49,1.44,2.17,2.17.05.06-.08.45.82,1.36.36.37,1.2,1.69,1.77,1.63,1.53-1.52,2.95-3.11,4.48-4.62l1.36.82c-1.61,2.01-3.63,3.62-5.44,5.44-.39-1.71-1.27-.77-1.36-.82-.76-.43-1.51-1.31-2.17-1.9-.81-.73-2.07-2.09-2.99-2.99-.12-.12-.72-1.73-2.31-2.45-1.59,1.74-6.09,6.14-6.93,7.47-.17.27.36.5.27.68-.04.07-.96-.21-.82,1.09-1.9-1.81-3.8-3.63-5.71-5.44,1.94,1.03.71-.4.82-1.63,1.43,1.43,2.73,2.97,4.21,4.35,1.56-.71,1.68-1.81,1.77-1.9.86-.92,1.03-1.29,1.09-1.36.64-.71,1.25-1.48,1.9-2.17.32-.34.75-.77,1.09-1.09.19-.18.66-.97.82-1.09.19-.15,1.66-1.1,1.77-1.09.5.34.8,1,1.22,1.36Z"/>
              <path class="cls-17" d="m102.46,164.42c-.43-.36-.72-1.02-1.22-1.36-.1-.01-1.58.94-1.77,1.09-.89-1-10.25-10.45-9.65-11.14.03-.03.77-.28.82-.27.72.1,9.87,10.13,10.6,10.06,1.54-.97,9.85-10.6,10.6-10.6.07,0,.95.88.95.95,0,.76-9.5,9.59-10.33,11.28Z"/>
              <path class="cls-11" d="m134.93,127.19s.69.32.68.68c-.02.78-11.1,9.87-10.87,11.14,1.08,1.54,11.3,10.11,11.14,10.87-.45,2.16-11.15-9.65-12.37-10.46-6.39,5.6-7.08,6.01-.95-.68-6.54-6.3-5.67-6.33.95-.68,1.61-1.05,10.63-10.84,11.41-10.87Z"/>
              <path class="cls-11" d="m67.53,127.46c.77,0,9.41,9.74,11.14,10.6.8.08,5.53-5.54,5.84-4.48l-4.89,4.89c5.68,6.07,5.29,6.4-.95.95l-11.69,10.87c-.2-.16-.18-.7-.14-.95.14-.75,9.69-9.15,10.87-10.6-1.01-1.55-10.87-9.84-10.87-10.6,0-.05.63-.68.68-.68Z"/>
              <path class="cls-11" d="m98.65,165.23c-.34.32-.77.75-1.09,1.09-4.72-4.17-9.69-8.18-14.27-12.5-2.9-2.73-8.41-7.83-4.89-6.25,1.23.55,17.14,15.74,20.25,17.66Z"/>
              <path class="cls-12" d="m95.66,168.5c-.06.06-.23.44-1.09,1.36-6.78-6.22-13.52-12.52-19.3-19.7q10.19,9.17,20.38,18.34Z"/>
              <path class="cls-17" d="m114.96,109.79c.85,1.06,1.99,1.82,2.99,2.72,1.59,2.88,4.04,4.98,6.25,7.34.43.46,6.04,7.65,5.71,4.48-.01-.1-1.13-1.23-1.36-1.49l.54-.27c.65.5,1.11,1.19,1.77,1.09,7.34-6.77,1.8,1.05-1.9,2.72-5.35-5.36-10.46-11.04-15.9-16.31l.54-1.36c.41.38.9.76,1.36,1.09Z"/>
              <path class="cls-11" d="m103.54,112.78c.39-.39.7-.95,1.09-1.36,1.67,2.9,21.08,17.81,20.65,19.16-.1.3-.61.5-.95.41q-10.4-9.1-20.79-18.21Z"/>
              <path class="cls-12" d="m95.66,109.25c-2.85,1.72-18.11,18.27-19.43,18.48-.21.03-.55.07-.68-.14,5.54-7.2,12.58-13.07,19.02-19.43.34.37.73.69,1.09,1.09Z"/>
              <path class="cls-11" d="m104.63,166.59c-.68-.71-.77-1.04-.82-1.09,2.65-1.96,18.9-18.25,20.25-18.48.25-.04.79-.07.95.14.87,1.11-19.43,17.22-20.38,19.43Z"/>
              <path class="cls-17" d="m115.5,167.95h-.27l-1.36-.82c5.27-5.19,10.23-10.7,15.63-15.76,7.22,6.09,6.75,8.46-.54,1.09-1.3,2.27-13.19,14.5-13.45,15.49Z"/>
              <path class="cls-12" d="m107.62,170.13c-.89-.91-.76-1.3-.82-1.36,6.78-6.43,13.3-13.5,20.65-19.16l-19.84,20.52Z"/>
              <path class="cls-11" d="m98.65,112.78q-10.53,9.1-21.06,18.21l-.41-.41c-.4-1.53,18.73-16.08,20.38-19.16.36.45.76.87,1.09,1.36Z"/>
              <path class="cls-17" d="m89.96,109.25c-5.72,5.74-11.33,11.6-16.99,17.39-6.18-5.73-6.68-8.02.27-1.36,2.32-2.09,4.28-4.51,6.39-6.79,1.65-1.78,5.42-4.69,4.08-5.44.75-.7,1.44-1.48,2.17-2.17.97-.92,2.01-1.8,2.99-2.72-.19.79.38,1.01,1.09,1.09Z"/>
              <path class="cls-11" d="m118.76,102.18c.37-.37.71-.72,1.09-1.09,2.04,3.29,11.64,14.17,12.5,15.9.28.55.83,1.07.41,1.77-.94.72-12.42-15.66-14-16.58Z"/>
              <path class="cls-11" d="m83.16,102.18c-1.87,1.64-12.13,16.23-13.18,16.31-.25.02-.63-.22-.68-.41-.25-1.03,11.62-14.73,13.04-16.71.28.27.54.55.82.82Z"/>
              <path class="cls-12" d="m119.85,120.12l-.54,1.09c-4.19-3.96-8.62-7.67-12.5-11.96.05-.05-.17-.02.82-1.09,4.2,3.87,8.27,7.83,12.23,11.96Z"/>
              <path class="cls-11" d="m83.43,175.56c-.98,1.01-1.3,1.03-1.36,1.09-3.04-3.95-6.37-7.75-9.24-11.82-.36-.5-3.48-4.75-2.85-5.03q6.73,7.88,13.45,15.76Z"/>
              <path class="cls-12" d="m84.79,163.6c.49,2.47-1.91,0-2.72-.82-1.68-1.68-5.9-7.42-8.83-10.06-.92-.17-1.27.96-1.77,1.36-1.27,1.02-2.41,2.22-3.67,3.26-.97-1.34,2.98-3.87,5.16-5.98,4.07,3.95,7.82,8.21,11.82,12.23Z"/>
              <path class="cls-11" d="m120.12,176.92c-.46-.46-.9-.89-1.36-1.36,3.09-2.21,10.76-14.01,12.77-15.35.18-.12,1.03-.61,1.09,0,.09,1.04-11.67,14.25-12.5,16.71Z"/>
              <path class="cls-8" d="m82.07,162.79h-1.36c-.38-.36-.72-.74-1.09-1.09-1.77-1.7-6.42-7.47-7.61-6.79-.43-.47-.15-.8-.54-.82.5-.4.85-1.53,1.77-1.36,2.93,2.63,7.15,8.37,8.83,10.06Z"/>
              <path class="cls-11" d="m121.48,110.34c1.23,1.35,9.73,9.49,9.78,10.19.25,3.11-9.97-8.97-10.6-9.65l.82-.54Z"/>
              <path class="cls-11" d="m129.09,122.57l-.54.27c-.65-.76-3.81-4.01-4.35-2.99-2.21-2.35-4.66-4.46-6.25-7.34.12.11.39-.29.41-.27,2.44,2.19,9.85,9.65,10.73,10.33Z"/>
              <path class="cls-11" d="m124.74,181.27c-.46-.45-.9-.92-1.36-1.36,1.28-.03,9.25-10.48,9.51-8.29.07.63-7.68,8.05-8.15,9.65Z"/>
              <path class="cls-17" d="m82.07,162.79c.81.81,3.21,3.29,2.72.82,1.26,1.27,2.54,2.54,3.8,3.8-.11,1.23,1.12,2.66-.82,1.63-.4-.38-.96-.71-1.36-1.09-1.86-1.78-3.85-3.39-5.71-5.16h1.36Z"/>
              <path class="cls-11" d="m78.81,179.91c-.41.4-.96.7-1.36,1.09-.57-1.32-9.5-9.32-7.2-9.51.64-.05,6.6,7.66,8.56,8.42Z"/>
              <path class="cls-11" d="m79.63,118.49c-.02-3.47-3.26,2.58-6.66,5.44l-.41-.41c3.07-4.18,7.46-7.03,11.14-10.46,1.34.75-2.43,3.65-4.08,5.44Z"/>
              <path class="cls-9" d="m80.44,165.78c-.8-.08-.9,0-.82.82-2.28-2.58-13.28-13.92-5.3-7.07,2.17,1.86,4.15,4.17,6.11,6.25Z"/>
              <path class="cls-11" d="m119.31,121.21l.54-1.09c2.24,2.34,4.88,4.32,6.52,7.2-.22,1.49-6.35-5.44-7.07-6.11Z"/>
              <path class="cls-11" d="m122.57,161.43c1.31-1.47,3.88-4.29,5.3-5.44,4.58-3.68.31.73-5.3,5.44Z"/>
              <path class="cls-11" d="m79.63,161.7c-2.62-2.05-5.35-4.36-7.61-6.79,1.18-.68,5.84,5.09,7.61,6.79Z"/>
              <path class="cls-11" d="m122.57,161.43c-.07.08-.66,1.85-1.63,1.49.49-.57,1.06-1.02,1.63-1.49Z"/>
              <path class="cls-13" d="m115.5,174.75q-7.07,7.2-14.13,14.4c-.38.08-.52-.15-.82-.27-1.79-.74-10.79-11.25-13.04-13.32.62.33.7.89,1.09,0,3.96,4.26,8.46,8.18,12.64,12.23,4.21-4.78,9.09-8.97,13.45-13.59.27.52.66.44.82.54Z"/>
              <path class="cls-14" d="m109.79,173.39c-2.83,2.84-5.45,5.88-8.29,8.7-.95.17-6.93-6.57-8.02-7.61-.14-1.29.78-1.02.82-1.09l6.93,6.52,7.2-7.34c.09.05.97-.89,1.36.82Z"/>
              <path class="cls-13" d="m114.96,103s-.12.5-.54.54c-3.83-4.06-9.17-8.14-12.91-12.77-.26.04-.57-.05-.82,0-.98.21-12.29,12.63-14,14.4-.56-.14-.16-1.62,0-1.9.5-.87,13.49-13.92,14.54-13.86q6.86,6.79,13.72,13.59Z"/>
              <path class="cls-8" d="m122.3,181.27c-1.62,2.65-16.99,17.62-17.12,18.89-.04.36.62.95.68.95,1.29,0,14.79-17.52,17.8-18.75,1.41,1.29,2.69,2.78,4.08,4.08-9.14,8.11-18.09,16.41-26.23,25.55-3.38-2.59-24.82-24.75-26.63-25-.29-.04-.64.3-.95.41q13.52,13.11,27.04,26.23c9.36-8.72,17.98-18.2,27.86-26.36.66.6,1.45,1.1,1.9,1.9-3.48,2.75-23.5,25.03-29.76,30.17l-29.49-30.44c2.48-2.2,4.83-4.59,7.34-6.79,2.48,1.8,16.24,18.96,17.53,19.02.06,0,.94-.62.95-.68.33-1.26-16.13-16.44-17.66-19.16.44-.39,3.15-3.26,3.4-3.26,5.61,6.25,11.28,12.46,17.66,17.94.26-.04.57.05.82,0,1.23-.27,15.56-15.75,17.66-17.94.24,0,2.69,2.87,3.13,3.26Z"/>
              <path class="cls-11" d="m87.51,175.56c2.26,2.07,11.26,12.57,13.04,13.32-2.22,3.47,3.3,5.37.82.27q7.07-7.2,14.13-14.4c.47.32,2.49,2.12,2.45,2.58-5.45,5.78-10.34,12.11-16.44,17.26-2.14.24-15.07-14.94-17.53-17.26,2.52-2.31,2.12-3.06,3.53-1.77Z"/>
              <path class="cls-11" d="m128.82,187.25c-9.88,8.16-18.49,17.64-27.86,26.36q-13.52-13.11-27.04-26.23c.31-.11.66-.45.95-.41,1.81.25,23.25,22.41,26.63,25,8.14-9.13,17.09-17.44,26.23-25.55.05.05.03-.15,1.09.82Z"/>
              <path class="cls-11" d="m78.81,182.08c.24-.21.47-.52.82-.82,1.54,2.72,18,17.9,17.66,19.16-.01.06-.89.68-.95.68-1.29-.06-15.05-17.22-17.53-19.02Z"/>
              <path class="cls-11" d="m123.65,182.36c-3.01,1.23-16.51,18.76-17.8,18.75-.06,0-.72-.59-.68-.95.13-1.27,15.5-16.24,17.12-18.89.42.38.93.7,1.36,1.09Z"/>
              <path class="cls-8" d="m127.46,91.86c-1.44,1.29-2.9,2.53-4.35,3.8-2.6-1.89-15.81-17.8-16.99-18.21-.24-.08-1.05.23-1.09.27-.83.97,16.06,17.15,17.26,18.75-.52.45-2.95,3.26-3.4,3.26-2.34-1.91-16.68-17.95-18.21-17.66l-17.39,17.66c-.92.14-2.73-2.42-3.4-2.99,4.11-5.12,12.23-12.64,15.76-16.99.45-.56,2.23-2.34,1.22-2.58-1.29-.31-15.44,17.13-18.34,18.48-1.39-1.24-2.71-2.54-4.08-3.8,9.18-8.27,18.07-16.77,26.77-25.55,8.18,9.12,17.22,17.27,26.23,25.55Z"/>
              <path class="cls-8" d="m130.45,89.14c-.63.54-1.28,1.09-1.9,1.63-4.23-3.87-8.77-7.46-12.91-11.41-2.07-1.98-13.15-14.19-14.13-14.4-.18-.04-.64-.04-.82,0-1.04.23-10.75,11.23-14.95,15.22-3.91,3.72-8.38,6.92-12.09,10.87-.71-.64-1.41-1.33-2.17-1.9l29.76-29.89q14.61,14.95,29.22,29.89Z"/>
              <path class="cls-11" d="m114.96,103q-6.86-6.79-13.72-13.59c-1.05-.06-14.04,12.99-14.54,13.86-.5-.37-2.5-2.1-2.45-2.58.12-1.2,14.87-15.39,16.71-17.53q8.49,8.76,16.99,17.53c-.92.89-1.96,1.57-2.99,2.31Z"/>
              <path class="cls-11" d="m128.55,90.77c-.36.32-.7.74-1.09,1.09-9.01-8.27-18.05-16.43-26.23-25.55-8.7,8.77-17.59,17.27-26.77,25.55-.29-.27-.55-.57-.82-.82,3.71-3.95,8.18-7.15,12.09-10.87,4.2-3.99,13.9-14.99,14.95-15.22.18-.04.64-.04.82,0,.99.21,12.06,12.42,14.13,14.4,4.14,3.96,8.68,7.54,12.91,11.41Z"/>
              <path class="cls-11" d="m123.11,95.66c-.24.22-.48.52-.82.82-1.2-1.6-18.09-17.79-17.26-18.75.04-.04.85-.36,1.09-.27,1.18.41,14.38,16.32,16.99,18.21Z"/>
              <path class="cls-11" d="m79.9,96.75c-.44-.37-.93-.7-1.36-1.09,2.9-1.35,17.05-18.79,18.34-18.48,1.01.24-.77,2.02-1.22,2.58-3.53,4.35-11.65,11.86-15.76,16.99Z"/>
              <path class="cls-8" d="m103.27,167.68c-.89,1.56-3.28-1.16-6.52,4.21l4.21,5.03c.42.04,5.44-5.15,5.3-6.25.66.59,1.42,1.47,2.17,1.9l-7.2,7.34-6.93-6.52c.09-.18-.44-.41-.27-.68.84-1.33,5.34-5.73,6.93-7.47,1.59.72,2.19,2.33,2.31,2.45Z"/>
              <path class="cls-8" d="m128.55,122.84c.23.27,1.35,1.39,1.36,1.49.33,3.17-5.28-4.03-5.71-4.48.54-1.02,3.7,2.23,4.35,2.99Z"/>
              <path class="cls-11" d="m101.37,189.15c2.49,5.1-3.04,3.19-.82-.27.3.12.43.35.82.27Z"/>
              <g>
                <path class="cls-8" d="m101.1,112.78l-7.34-7.34c.92-.92,6.89-7.4,7.47-7.34l6.93,7.47c-.06.61-6.26,6.19-7.07,7.2Z"/>
                <path class="cls-8" d="m100.42,104.09c3.47-.67,3.46,4.62.27,4.35-2.2-.19-2.34-3.95-.27-4.35Z"/>
              </g>
              <g>
                <path class="cls-11" d="m106.26,170.67c.14,1.1-4.88,6.29-5.3,6.25l-4.21-5.03c3.24-5.38,5.63-2.65,6.52-4.21.92.9,2.18,2.26,2.99,2.99Z"/>
                <path class="cls-8" d="m101.23,169.31c3.33,0,2.02,4.54.27,4.89-2.46.5-3.98-4.89-.27-4.89Z"/>
              </g>
              <g>
                <path class="cls-11" d="m100.96,119.85q9.85,9.58,19.7,19.16-9.72,9.58-19.43,19.16c-6.95-5.8-12.99-12.55-19.43-18.89l19.16-19.43Z"/>
                <path class="cls-8" d="m100.96,121.75q9.31,8.63,18.62,17.26-9.17,8.63-18.34,17.26-9.04-8.63-18.07-17.26l17.8-17.26Z"/>
                <g>
                  <path class="cls-11" d="m100.96,124.74q7,7.13,14,14.27l-13.72,14.54q-6.86-7.27-13.72-14.54,6.73-7.13,13.45-14.27Z"/>
                  <g>
                    <path class="cls-8" d="m100.96,126.64q6.05,6.05,12.09,12.09-5.91,6.45-11.82,12.91l-12.09-12.64q5.91-6.18,11.82-12.37Z"/>
                    <g>
                      <path class="cls-11" d="m100.69,133.44c1.59-.37,5.1,4.55,6.66,5.3q-3.06,3.06-6.11,6.11l-6.11-5.57c-.1-.57,5.18-5.75,5.57-5.84Z"/>
                      <path class="cls-8" d="m100.96,134.8l4.76,4.21-4.48,4.21-4.48-3.94,4.21-4.48Z"/>
                    </g>
                  </g>
                </g>
              </g>
            </g>
          </g>
        </g>
      </g>
    </g>
  </g>
</svg>